# xmcd CD database file
#
# Track frame offsets:
#	150
#	3883
#	25662
#	50298
#	71581
#	90062
#	109436
#	127841
#	147527
#	167909
#	191448
#	214351
#
# Disc length: 2956 seconds
#
# Revision: 1
# Processed by: cddbd v1.5.2PL0 Copyright (c) Steve Scherf et al.
# Submitted via: jetAudio 5
#
DISCID=9d0b8a0c
DTITLE=Gentle Rain - Into the Gentle Rain
DYEAR=2005
DGENRE=Jazz
TTITLE0=Raindrops(Intro)
TTITLE1=After The Gentle Rain
TTITLE2=Into The Rain
TTITLE3=찬비
TTITLE4=Stand Up!
TTITLE5=The Night and Sweet
TTITLE6=Beyond The Blue Horizon
TTITLE7=그대 떠난뒤
TTITLE8=Rain In The Sun
TTITLE9=The Reason For Being
TTITLE10=Even The Nights Are Better
TTITLE11=Homeward(Outro)
EXTD=YEAR: 2005
EXTT0=
EXTT1=
EXTT2=
EXTT3=
EXTT4=
EXTT5=
EXTT6=
EXTT7=
EXTT8=
EXTT9=
EXTT10=
EXTT11=
PLAYORDER=
